<?xml version="1.0" encoding="UTF-8" standalone="no"?>
<!-- Created with Inkscape (http://www.inkscape.org/) -->

<svg width="600.92" height="300.99" viewBox="960 540 600.92 300.99" version="1.1" id="svg1" xmlns="http://www.w3.org/2000/svg" xmlns:svg="http://www.w3.org/2000/svg">
  <defs id="defs1" />
  <g id="layer1" transform="translate(15.5,85.51)">
    <path style="fill:none;fill-opacity:0;stroke:#aa0000;stroke-width:0.999975;stroke-dasharray:none;stroke-opacity:1;paint-order:stroke fill markers" d="m 945,604.99 h 600 m -600,150 v -300 m 0,150 c 6.9,-20.69 13.79,-41.37 20.69,-60.31 6.89,-18.95 13.79,-36.13 20.69,-50.13 6.89,-14.01 13.82,-24.8 20.72,-31.49 6.9,-6.7 13.8,-9.28 20.6,-7.54 7,1.74 13.8,7.82 20.7,17.7 6.9,9.88 13.8,23.58 20.7,39.94 6.9,16.36 13.8,35.37 20.7,55.44 6.9,20.07 13.8,41.19 20.7,61.58 6.9,20.4 13.8,40.05 20.7,57.33 6.9,17.28 13.8,32.16 20.7,43.4 6.9,11.25 13.8,18.83 20.7,22.15 6.9,3.31 13.8,2.33 20.7,-2.85 6.9,-5.18 13.7,-14.57 20.6,-27.36 6.9,-12.8 13.8,-29 20.7,-47.25 6.9,-18.26 13.8,-38.55 20.7,-59.18 6.9,-20.63 13.8,-41.58 20.7,-61.1 6.9,-19.52 13.8,-37.59 20.7,-52.72 6.9,-15.12 13.8,-27.26 20.7,-35.43 6.9,-8.17 13.8,-12.34 20.7,-12.17 6.9,0.16 13.8,4.67 20.7,13.14 6.9,8.47 13.7,20.91 20.7,36.25 6.8,15.34 13.7,33.6 20.6,53.23 6.9,19.63 13.8,40.62 20.7,61.22 6.9,20.6 13.8,40.79 20.7,58.89 6.9,18.09 13.8,34.07 20.7,46.61 6.9,12.53 13.8,21.6 20.7,26.46 6.9,4.86 13.8,5.49 20.7,1.85 6.9,-3.64 13.8,-11.55 20.7,-23.07 6.9,-11.52 13.7,-26.65 20.7,-44.1" title="t sin(t-0*pi/3)" id="path13" />
    <path style="fill:none;fill-opacity:0;stroke:#008000;stroke-width:0.999975;stroke-dasharray:none;stroke-opacity:1;paint-order:stroke fill markers" d="m 945,604.99 h 600 m -600,150 v -300 m 0,279.9 c 6.9,10.35 13.79,16.93 20.69,19.2 6.89,2.27 13.79,0.21 20.69,-5.98 6.89,-6.19 13.82,-16.52 20.72,-30.13 6.9,-13.61 13.8,-30.48 20.6,-49.21 7,-18.72 13.8,-39.28 20.7,-59.97 6.9,-20.68 13.8,-41.46 20.7,-60.61 6.9,-19.15 13.8,-36.64 20.7,-51.03 6.9,-14.38 13.8,-25.63 20.7,-32.83 6.9,-7.19 13.8,-10.29 20.7,-9.08 6.9,1.21 13.8,6.77 20.7,16.19 6.9,9.42 13.8,22.7 20.7,38.74 6.9,16.02 13.8,34.8 20.7,54.73 6.9,19.94 13.7,41.03 20.6,61.5 6.9,20.48 13.8,40.33 20.7,57.89 6.9,17.56 13.8,32.82 20.7,44.5 6.9,11.68 13.8,19.77 20.7,23.6 6.9,3.83 13.8,3.38 20.7,-1.28 6.9,-4.67 13.8,-13.57 20.7,-25.95 6.9,-12.38 13.8,-28.23 20.7,-46.23 6.9,-18 13.8,-38.14 20.7,-58.72 6.9,-20.58 13.7,-41.59 20.7,-61.29 6.8,-19.69 13.7,-38.03 20.6,-53.51 6.9,-15.48 13.8,-28.05 20.7,-36.7 6.9,-8.65 13.8,-13.34 20.7,-13.71 6.9,-0.36 13.8,3.63 20.7,11.61 6.9,7.99 13.8,19.99 20.7,34.97 6.9,14.99 13.8,32.97 20.7,52.42 6.9,19.46 13.8,40.38 20.7,61.03 6.9,20.64 13.7,40.98 20.7,59.33" title="t sin(t-2*pi/3)" id="path14" />
    <path style="fill:none;fill-opacity:0;stroke:#000080;stroke-width:0.999975;stroke-dasharray:none;stroke-opacity:1;paint-order:stroke fill markers" d="m 945,604.99 h 600 m -600,150 v -300 m 0,20.1 c 6.9,10.34 13.79,24.44 20.69,41.12 6.89,16.67 13.79,35.91 20.69,56.1 6.89,20.19 13.82,41.32 20.72,61.62 6.9,20.31 13.8,39.76 20.6,56.74 7,16.99 13.8,31.47 20.7,42.28 6.9,10.8 13.8,17.88 20.7,20.67 6.9,2.79 13.8,1.27 20.7,-4.41 6.9,-5.69 13.8,-15.55 20.7,-28.76 6.9,-13.2 13.8,-29.75 20.7,-48.24 6.9,-18.5 13.8,-38.93 20.7,-59.59 6.9,-20.67 13.8,-41.54 20.7,-60.88 6.9,-19.35 13.8,-37.13 20.7,-51.89 6.9,-14.76 13.7,-26.46 20.6,-34.14 6.9,-7.69 13.8,-11.33 20.7,-10.64 6.9,0.69 13.8,5.73 20.7,14.68 6.9,8.94 13.8,21.81 20.7,37.5 6.9,15.69 13.8,34.21 20.7,54 6.9,19.79 13.8,40.84 20.7,61.38 6.9,20.55 13.8,40.57 20.7,58.41 6.9,17.83 13.8,33.45 20.7,45.57 6.9,12.11 13.7,20.69 20.7,25.04 6.8,4.35 13.7,4.43 20.6,0.28 6.9,-4.15 13.8,-12.56 20.7,-24.52 6.9,-11.95 13.8,-27.44 20.7,-45.18 6.9,-17.73 13.8,-37.7 20.7,-58.22 6.9,-20.52 13.8,-41.58 20.7,-61.43 6.9,-19.85 13.8,-38.45 20.7,-54.27 6.9,-15.82 13.8,-28.83 20.7,-37.96 6.9,-9.12 13.7,-14.33 20.7,-15.22" title="t sin(t-4*pi/3)" id="path15" />
  </g>
</svg>
