<?xml version="1.0" encoding="UTF-8" standalone="no"?>
<!-- Created with Inkscape (http://www.inkscape.org/) -->

<svg width="1920" height="1080" viewBox="960 540 1920 1080" version="1.1" id="svg1" inkscape:version="1.4.2 (f4327f4, 2025-05-13)" sodipodi:docname="fig-002-src.svg" xmlns:inkscape="http://www.inkscape.org/namespaces/inkscape" xmlns:sodipodi="http://sodipodi.sourceforge.net/DTD/sodipodi-0.dtd" xmlns="http://www.w3.org/2000/svg" xmlns:svg="http://www.w3.org/2000/svg">
  <sodipodi:namedview id="namedview1" pagecolor="#ffffff" bordercolor="#ffffff" borderopacity="0.24706" inkscape:showpageshadow="2" inkscape:pageopacity="0.0" inkscape:pagecheckerboard="0" inkscape:deskcolor="#ffffff" inkscape:document-units="px" showgrid="true" inkscape:zoom="0.76979" inkscape:cx="198.76" inkscape:cy="150.04" inkscape:window-width="1368" inkscape:window-height="860" inkscape:window-x="-7" inkscape:window-y="22" inkscape:window-maximized="1" inkscape:current-layer="layer1">
    <inkscape:grid id="grid1" units="px" originx="960" originy="540" spacingx="5" spacingy="5" empcolor="#0099e5" empopacity="0.30196" color="#0099e5" opacity="0.14902" empspacing="5" enabled="true" visible="true" />
  </sodipodi:namedview>
  <defs id="defs1" />
  <g inkscape:label="Layer 1" inkscape:groupmode="layer" id="layer1">
    <path style="fill:none;fill-opacity:0;stroke:#aa0000;stroke-width:0.999975;stroke-dasharray:none;stroke-opacity:1;paint-order:stroke fill markers" d="M 945 604.99 l 599.95 0 M 945 754.99 l 0 -300 M 945 604.99 C 951.896 584.3 958.792 563.622 965.688 544.677 C 972.584 525.732 979.48 508.548 986.376 494.545 C 993.272 480.542 1000.17 469.752 1007.06 463.055 C 1013.96 456.358 1020.86 453.784 1027.75 455.524 C 1034.65 457.263 1041.54 463.339 1048.44 473.221 C 1055.34 483.103 1062.23 496.804 1069.13 513.161 C 1076.02 529.518 1082.92 548.53 1089.82 568.601 C 1096.71 588.671 1103.61 609.786 1110.5 630.183 C 1117.4 650.579 1124.3 670.233 1131.19 687.513 C 1138.09 704.792 1144.98 719.667 1151.88 730.913 C 1158.78 742.159 1165.67 749.744 1172.57 753.058 C 1179.46 756.372 1186.36 755.387 1193.26 750.21 C 1200.15 745.033 1207.05 735.644 1213.94 722.849 C 1220.84 710.055 1227.74 693.847 1234.63 675.595 C 1241.53 657.342 1248.42 637.051 1255.32 616.422 C 1262.21 595.793 1269.11 574.844 1276.01 555.32 C 1282.9 535.796 1289.8 517.725 1296.69 502.602 C 1303.59 487.479 1310.49 475.336 1317.38 467.166 C 1324.28 458.997 1331.17 454.832 1338.07 454.995 C 1344.97 455.158 1351.86 459.674 1358.76 468.142 C 1365.65 476.61 1372.55 489.045 1379.45 504.388 C 1386.34 519.732 1393.24 537.986 1400.13 557.616 C 1407.03 577.245 1413.93 598.238 1420.82 618.84 C 1427.72 639.441 1434.61 659.629 1441.51 677.726 C 1448.41 695.823 1455.3 711.798 1462.2 724.335 C 1469.09 736.872 1475.99 745.938 1482.89 750.799 C 1489.78 755.66 1496.68 756.286 1503.57 752.651 C 1510.47 749.015 1517.37 741.097 1524.26 729.578 C 1531.16 718.06 1538.05 702.933 1544.95 685.476" title="t sin(t-0*pi/3)" id="path13" />
    <path style="fill:none;fill-opacity:0;stroke:#008000;stroke-width:0.999975;stroke-dasharray:none;stroke-opacity:1;paint-order:stroke fill markers" d="M 945 604.99 l 599.95 0 M 945 754.99 l 0 -300 M 945 734.894 C 951.896 745.235 958.792 751.815 965.688 754.087 C 972.584 756.358 979.48 754.301 986.376 748.113 C 993.272 741.924 1000.17 731.585 1007.06 717.98 C 1013.96 704.375 1020.86 687.499 1027.75 668.775 C 1034.65 650.051 1041.54 629.487 1048.44 608.804 C 1055.34 588.121 1062.23 567.339 1069.13 548.189 C 1076.02 529.038 1082.92 511.547 1089.82 497.161 C 1096.71 482.776 1103.61 471.528 1110.5 464.335 C 1117.4 457.142 1124.3 454.036 1131.19 455.251 C 1138.09 456.465 1144.98 462.025 1151.88 471.441 C 1158.78 480.858 1165.67 494.145 1172.57 510.175 C 1179.46 526.204 1186.36 544.976 1193.26 564.912 C 1200.15 584.849 1207.05 605.937 1213.94 626.415 C 1220.84 646.893 1227.74 666.738 1234.63 684.301 C 1241.53 701.864 1248.42 717.116 1255.32 728.8 C 1262.21 740.484 1269.11 748.568 1276.01 752.4 C 1282.9 756.232 1289.8 755.785 1296.69 751.118 C 1303.59 746.452 1310.49 737.548 1317.38 725.171 C 1324.28 712.794 1331.17 696.936 1338.07 678.937 C 1344.97 660.938 1351.86 640.804 1358.76 620.221 C 1365.65 599.639 1372.55 578.627 1379.45 558.935 C 1386.34 539.243 1393.24 520.899 1400.13 505.422 C 1407.03 489.945 1413.93 477.366 1420.82 468.716 C 1427.72 460.066 1434.61 455.376 1441.51 455.013 C 1448.41 454.649 1455.3 458.639 1462.2 466.624 C 1469.09 474.61 1475.99 486.606 1482.89 501.592 C 1489.78 516.578 1496.68 534.556 1503.57 554.012 C 1510.47 573.469 1517.37 594.394 1524.26 615.038 C 1531.16 635.681 1538.05 656.021 1544.95 674.367" title="t sin(t-2*pi/3)" id="path14" />
    <path style="fill:none;fill-opacity:0;stroke:#000080;stroke-width:0.999975;stroke-dasharray:none;stroke-opacity:1;paint-order:stroke fill markers" d="M 945 604.99 l 599.95 0 M 945 754.99 l 0 -300 M 945 475.086 C 951.896 485.435 958.792 499.532 965.688 516.206 C 972.584 532.88 979.48 552.121 986.376 572.312 C 993.272 592.504 1000.17 613.633 1007.06 633.935 C 1013.96 654.236 1020.86 673.686 1027.75 690.671 C 1034.65 707.656 1041.54 722.144 1048.44 732.945 C 1055.34 743.746 1062.23 750.827 1069.13 753.62 C 1076.02 756.414 1082.92 754.893 1089.82 749.208 C 1096.71 743.523 1103.61 733.656 1110.5 720.452 C 1117.4 707.248 1124.3 690.701 1131.19 672.207 C 1138.09 653.713 1144.98 633.278 1151.88 612.616 C 1158.78 591.953 1165.67 571.081 1172.57 551.737 C 1179.46 532.394 1186.36 514.607 1193.26 499.848 C 1200.15 485.089 1207.05 473.389 1213.94 465.706 C 1220.84 458.022 1227.74 454.385 1234.63 455.074 C 1241.53 455.763 1248.42 460.803 1255.32 469.748 C 1262.21 478.693 1269.11 491.558 1276.01 507.25 C 1282.9 522.941 1289.8 541.461 1296.69 561.25 C 1303.59 581.039 1310.49 602.086 1317.38 622.633 C 1324.28 643.18 1331.17 663.202 1338.07 681.038 C 1344.97 698.874 1351.86 714.492 1358.76 726.607 C 1365.65 738.721 1372.55 747.299 1379.45 751.647 C 1386.34 755.995 1393.24 756.084 1400.13 751.932 C 1407.03 747.78 1413.93 739.366 1420.82 727.414 C 1427.72 715.462 1434.61 699.965 1441.51 682.231 C 1448.41 664.498 1455.3 644.533 1462.2 624.011 C 1469.09 603.489 1475.99 582.426 1482.89 562.58 C 1489.78 542.733 1496.68 524.128 1503.57 508.307 C 1510.47 492.486 1517.37 479.479 1524.26 470.354 C 1531.16 461.229 1538.05 456.016 1544.95 455.127" title="t sin(t-4*pi/3)" id="path15" />
  </g>
</svg>
