<?xml version="1.0" encoding="UTF-8" standalone="no"?>
<!-- Created with Inkscape (http://www.inkscape.org/) -->

<svg width="1360.7" height="423.15" viewBox="960 540 1360.7 423.15" version="1.1" id="svg1" xmlns="http://www.w3.org/2000/svg" xmlns:svg="http://www.w3.org/2000/svg">
  <defs id="defs1">
    <rect x="-125" y="125" width="50" height="50" id="rect16" />
    <rect x="-25" y="350" width="50" height="50" id="rect9" />
    <marker style="overflow:visible" id="marker8" refX="-1" refY="0" orient="auto-start-reverse" markerWidth="0.7" markerHeight="0.7" viewBox="0 0 1 1" preserveAspectRatio="xMidYMid">
      <path transform="scale(0.7)" d="M -2,-4 9,0 -2,4 c 2,-2.33 2,-5.66 0,-8 z" style="fill:context-stroke;fill-rule:evenodd;stroke:none" id="path8" />
    </marker>
    <rect x="-25" y="350" width="70.992" height="30" id="rect10" />
    <rect x="-25" y="350" width="74" height="30" id="rect11" />
    <rect x="-25" y="350" width="50" height="50" id="rect13" />
    <rect x="-25" y="350" width="50" height="50" id="rect14" />
    <rect x="-25" y="350" width="50" height="50" id="rect15" />
  </defs>
  <g id="layer1" transform="translate(425.5,35.22)">
    <path style="fill:#4d4d4d;fill-opacity:0;stroke:#4d4d4d;stroke-width:2.00003;stroke-dasharray:6.00009, 6.00009;stroke-dashoffset:0;stroke-opacity:1;paint-order:stroke fill markers" d="M 610.02,561 H 960.03" id="path31" />
    <path style="fill:#4d4d4d;fill-opacity:0;stroke:#4d4d4d;stroke-width:2.00003;stroke-dasharray:6.00009, 6.00009;stroke-dashoffset:0;stroke-opacity:1;paint-order:stroke fill markers" d="M 610.02,819.16 H 960.03" id="path32" />
    <rect style="fill:none;stroke:none;stroke-width:0.999988;stroke-dasharray:none;stroke-opacity:1;paint-order:stroke fill markers" id="rect2" width="899.98" height="300" x="959.97" y="540" />
    <path style="fill:none;stroke:#d40000;stroke-width:3;stroke-dasharray:none;stroke-opacity:1;paint-order:stroke fill markers" d="m 960,690 c 10.35,-21.67 20.69,-43.32 31.03,-62.98 10.37,-19.67 20.67,-37.31 31.07,-51.34 10.3,-14.03 20.7,-24.41 31,-30.21 10.4,-5.8 20.7,-6.99 31,-3.49 10.4,3.5 20.7,11.71 31.1,23.87 10.3,12.15 20.7,28.26 31,46.82 10.3,18.56 20.7,39.57 31,61.11 10.4,21.54 20.7,43.58 31.1,64.11 10.3,20.54 20.7,39.53 31,55.26 10.4,15.74 20.7,28.17 31,36.2 10.4,8.02 20.7,11.6 31.1,10.43 10.3,-1.17 20.7,-7.11 31,-17.25 10.4,-10.15 20.7,-24.51 31.1,-41.75 10.3,-17.25 20.6,-37.38 31,-58.53 10.3,-21.16 20.7,-43.34 31,-64.5 10.4,-21.16 20.7,-41.27 31,-58.53 10.4,-17.25 20.7,-31.59 31.1,-41.75 10.3,-10.15 20.7,-16.07 31,-17.25 10.4,-1.18 20.7,2.42 31.1,10.43 10.3,8.02 20.6,20.47 31,36.2 10.3,15.72 20.7,34.72 31,55.26 10.4,20.52 20.7,42.57 31.1,64.11 10.3,21.54 20.7,42.55 31,61.11 10.3,18.57 20.7,34.66 31,46.82 10.4,12.17 20.7,20.36 31.1,23.87 10.3,3.51 20.6,2.3 31,-3.49 10.3,-5.79 20.7,-16.18 31,-30.21 10.4,-14.02 20.7,-31.68 31.1,-51.34 10.3,-19.66 20.7,-41.31 31,-62.98" title="t sin(4*pi*t)" id="path2" />
    <path style="fill:none;stroke:#000080;stroke-width:2;stroke-dasharray:none;stroke-opacity:1;paint-order:stroke fill markers" d="m 935,690 h 950" id="path5" />
    <path style="fill:none;stroke:#333333;stroke-width:2;stroke-dasharray:none;stroke-opacity:1;marker-end:url(#marker8);paint-order:stroke fill markers" d="M 960,890 V 515" id="path6" />
    <path style="fill:none;stroke:#333333;stroke-width:2;stroke-dasharray:none;stroke-opacity:1;marker-end:url(#marker8);paint-order:stroke fill markers" d="m 935,865 h 950" id="path9" />
    <text xml:space="preserve" transform="translate(960,566)" id="text9" style="font-style:normal;font-variant:normal;font-weight:normal;font-stretch:normal;font-size:29.3333px;line-height:0;font-family:'Times New Roman';-inkscape-font-specification:'Times New Roman, Normal';font-variant-ligatures:normal;font-variant-caps:normal;font-variant-numeric:normal;font-variant-east-asian:normal;text-align:center;text-decoration-color:#000000;white-space:pre;shape-inside:url(#rect9);display:inline;fill:#000000;stroke:#ffffff;stroke-width:4;-inkscape-stroke:none;paint-order:stroke markers fill;stop-color:#000000" x="25" y="0"><tspan x="-7.3333" y="357.7" id="tspan11">0</tspan></text>
    <text xml:space="preserve" transform="translate(1100,566)" id="text10" style="font-style:normal;font-variant:normal;font-weight:normal;font-stretch:normal;font-size:29.3333px;line-height:0;font-family:'Times New Roman';-inkscape-font-specification:'Times New Roman, Normal';font-variant-ligatures:normal;font-variant-caps:normal;font-variant-numeric:normal;font-variant-east-asian:normal;text-align:center;text-decoration-color:#000000;white-space:pre;shape-inside:url(#rect10);shape-padding:1.82543;display:inline;fill:#000000;stroke:#ffffff;stroke-width:4;-inkscape-stroke:none;paint-order:stroke markers fill;stop-color:#000000" x="25" y="0"><tspan x="-15.65" y="359.53" id="tspan12">2π/3</tspan></text>
    <path style="fill:none;stroke:#333333;stroke-width:2;stroke-dasharray:none;stroke-opacity:1;paint-order:stroke fill markers" d="m 1110,865 c 0,25 0,25 0,25" id="path10" />
    <text xml:space="preserve" transform="translate(1249.1,566)" id="text11" style="font-style:normal;font-variant:normal;font-weight:normal;font-stretch:normal;font-size:29.3333px;line-height:0;font-family:'Times New Roman';-inkscape-font-specification:'Times New Roman, Normal';font-variant-ligatures:normal;font-variant-caps:normal;font-variant-numeric:normal;font-variant-east-asian:normal;text-align:center;text-decoration-color:#000000;white-space:pre;shape-inside:url(#rect11);shape-padding:1;display:inline;fill:#000000;stroke:#ffffff;stroke-width:4;-inkscape-stroke:none;paint-order:stroke markers fill;stop-color:#000000" x="25" y="0"><tspan x="-14.146" y="358.7" id="tspan13">4π/3</tspan></text>
    <path style="fill:none;stroke:#333333;stroke-width:2;stroke-dasharray:none;stroke-opacity:1;paint-order:stroke fill markers" d="m 1260,865 c 0,25 0,25 0,25" id="path11" />
    <text xml:space="preserve" transform="translate(1410,566)" id="text13" style="font-style:normal;font-variant:normal;font-weight:normal;font-stretch:normal;font-size:29.3333px;line-height:0;font-family:'Times New Roman';-inkscape-font-specification:'Times New Roman, Normal';font-variant-ligatures:normal;font-variant-caps:normal;font-variant-numeric:normal;font-variant-east-asian:normal;text-align:center;text-decoration-color:#000000;white-space:pre;shape-inside:url(#rect13);display:inline;fill:#000000;stroke:#ffffff;stroke-width:4;-inkscape-stroke:none;paint-order:stroke markers fill;stop-color:#000000" x="25" y="0"><tspan x="-14.738" y="357.7" id="tspan14">2π</tspan></text>
    <path style="fill:none;stroke:#333333;stroke-width:2;stroke-dasharray:none;stroke-opacity:1;paint-order:stroke fill markers" d="m 1410,865 c 0,25 0,25 0,25" id="path13" />
    <text xml:space="preserve" transform="translate(1860,566)" id="text14" style="font-style:normal;font-variant:normal;font-weight:normal;font-stretch:normal;font-size:29.3333px;line-height:0;font-family:'Times New Roman';-inkscape-font-specification:'Times New Roman, Normal';font-variant-ligatures:normal;font-variant-caps:normal;font-variant-numeric:normal;font-variant-east-asian:normal;text-align:center;text-decoration-color:#000000;white-space:pre;shape-inside:url(#rect14);display:inline;fill:#000000;stroke:#ffffff;stroke-width:4;-inkscape-stroke:none;paint-order:stroke markers fill;stop-color:#000000" x="25" y="0"><tspan x="-14.738" y="357.7" id="tspan15">4π</tspan></text>
    <path style="fill:none;stroke:#333333;stroke-width:2;stroke-dasharray:none;stroke-opacity:1;paint-order:stroke fill markers" d="m 1860,865 c 0,25 0,25 0,25" id="path14" />
    <text xml:space="preserve" transform="translate(1635.1,566)" id="text15" style="font-style:normal;font-variant:normal;font-weight:normal;font-stretch:normal;font-size:29.3333px;line-height:0;font-family:'Times New Roman';-inkscape-font-specification:'Times New Roman, Normal';font-variant-ligatures:normal;font-variant-caps:normal;font-variant-numeric:normal;font-variant-east-asian:normal;text-align:center;text-decoration-color:#000000;white-space:pre;shape-inside:url(#rect15);display:inline;fill:#000000;stroke:#ffffff;stroke-width:4;-inkscape-stroke:none;paint-order:stroke markers fill;stop-color:#000000" x="25" y="0"><tspan x="-14.738" y="357.7" id="tspan16">3π</tspan></text>
    <path style="fill:none;stroke:#333333;stroke-width:2;stroke-dasharray:none;stroke-opacity:1;paint-order:stroke fill markers" d="m 1635,865 c 0,25 0,25 0,25" id="path15" />
    <text xml:space="preserve" transform="translate(1020,550)" id="text16" style="font-style:normal;font-variant:normal;font-weight:normal;font-stretch:normal;font-size:29.3333px;line-height:normal;font-family:'Times New Roman';-inkscape-font-specification:'Times New Roman, Normal';font-variant-ligatures:normal;font-variant-caps:normal;font-variant-numeric:normal;font-variant-east-asian:normal;text-align:center;text-decoration-color:#000000;white-space:pre;shape-inside:url(#rect16);display:inline;fill:#000000;stroke:#ffffff;stroke-width:4;-inkscape-stroke:none;paint-order:stroke markers fill;stop-color:#000000" x="25" y="0"><tspan x="-107.33" y="151.04" id="tspan19">0</tspan></text>
    <text xml:space="preserve" style="font-style:normal;font-variant:normal;font-weight:normal;font-stretch:normal;font-size:29.3333px;line-height:normal;font-family:'Times New Roman';-inkscape-font-specification:'Times New Roman, Normal';font-variant-ligatures:normal;font-variant-caps:normal;font-variant-numeric:normal;font-variant-east-asian:normal;text-decoration-color:#000000;fill:#000000;stroke:#ffffff;stroke-width:4;-inkscape-stroke:none;paint-order:stroke markers fill;stop-color:#000000" x="892" y="547.8" id="text17"><tspan id="tspan17" x="892" y="547.8">+<tspan style="font-style:italic;font-variant:normal;font-weight:normal;font-stretch:normal;font-size:29.3333px;font-family:'Times New Roman';-inkscape-font-specification:'Times New Roman, Italic';font-variant-ligatures:normal;font-variant-caps:normal;font-variant-numeric:normal;font-variant-east-asian:normal" id="tspan32">I</tspan><tspan style="font-style:italic;font-variant:normal;font-weight:normal;font-stretch:normal;font-size:65%;font-family:'Times New Roman';-inkscape-font-specification:'Times New Roman, Italic';font-variant-ligatures:normal;font-variant-caps:normal;font-variant-numeric:normal;font-variant-east-asian:normal;baseline-shift:sub" id="tspan18">p</tspan></tspan></text>
    <text xml:space="preserve" style="font-style:normal;font-variant:normal;font-weight:normal;font-stretch:normal;font-size:29.3333px;line-height:normal;font-family:'Times New Roman';-inkscape-font-specification:'Times New Roman, Normal';font-variant-ligatures:normal;font-variant-caps:normal;font-variant-numeric:normal;font-variant-east-asian:normal;text-decoration-color:#000000;fill:#000000;stroke:#ffffff;stroke-width:4;-inkscape-stroke:none;paint-order:stroke markers fill;stop-color:#000000" x="892" y="847.8" id="text20"><tspan id="tspan20" x="892" y="847.8">−<tspan style="font-style:italic;font-variant:normal;font-weight:normal;font-stretch:normal;font-size:29.3333px;font-family:'Times New Roman';-inkscape-font-specification:'Times New Roman, Italic';font-variant-ligatures:normal;font-variant-caps:normal;font-variant-numeric:normal;font-variant-east-asian:normal" id="tspan33">I</tspan><tspan style="font-style:italic;font-variant:normal;font-weight:normal;font-stretch:normal;font-size:65%;font-family:'Times New Roman';-inkscape-font-specification:'Times New Roman, Italic';font-variant-ligatures:normal;font-variant-caps:normal;font-variant-numeric:normal;font-variant-east-asian:normal;baseline-shift:sub" id="tspan21">p</tspan></tspan></text>
    <path style="fill:none;stroke:#333333;stroke-width:2;stroke-dasharray:none;stroke-opacity:1;paint-order:stroke fill markers" d="M 960,841 H 935" id="path20" />
    <path style="fill:none;stroke:#333333;stroke-width:2;stroke-dasharray:none;stroke-opacity:1;paint-order:stroke fill markers" d="m 959.5,540 h -25" id="path21" />
    <path style="fill:none;stroke:#d40000;stroke-width:3;stroke-dasharray:none;stroke-opacity:1;marker-end:url(#marker8);paint-order:stroke fill markers" d="M 685,690 H 820" id="path22" />
    <circle style="font-variation-settings:normal;opacity:1;vector-effect:none;fill:none;fill-opacity:1;fill-rule:evenodd;stroke:#000000;stroke-width:1;stroke-linecap:butt;stroke-linejoin:miter;stroke-miterlimit:4;stroke-dasharray:none;stroke-dashoffset:0;stroke-opacity:1;-inkscape-stroke:none;stop-color:#000000;stop-opacity:1" id="path23" cx="685" cy="690" r="150" />
    <path style="fill:none;fill-opacity:0;stroke:#008000;stroke-width:3;stroke-dasharray:none;stroke-opacity:1;marker-end:url(#marker8);paint-order:stroke fill markers" d="M 685,690 617.5,806.91" id="path25" />
    <path style="fill:none;fill-opacity:1;stroke:#000080;stroke-width:3;stroke-dasharray:none;stroke-opacity:1;marker-end:url(#marker8);paint-order:stroke fill markers" d="M 685,690 617.5,573.09" id="path26" />
    <text xml:space="preserve" style="font-size:29.3333px;line-height:normal;font-family:'Times New Roman';-inkscape-font-specification:'Times New Roman, Normal';text-align:center;text-decoration-color:#000000;text-anchor:middle;fill:#000000;stroke:#ffffff;stroke-width:4;-inkscape-stroke:none;paint-order:stroke markers fill;stop-color:#000000" x="709.04" y="661.95" id="text26"><tspan x="709.04" y="661.95" id="tspan27">120°</tspan></text>
    <text xml:space="preserve" style="font-size:29.3333px;line-height:normal;font-family:'Times New Roman';-inkscape-font-specification:'Times New Roman, Normal';text-align:center;text-decoration-color:#000000;text-anchor:middle;fill:#000000;stroke:#ffffff;stroke-width:4;-inkscape-stroke:none;paint-order:stroke markers fill;stop-color:#000000" x="634.04" y="699.75" id="text28"><tspan x="634.04" y="699.75" id="tspan28">120°</tspan></text>
    <text xml:space="preserve" style="font-size:29.3333px;line-height:normal;font-family:'Times New Roman';-inkscape-font-specification:'Times New Roman, Normal';text-align:center;text-decoration-color:#000000;text-anchor:middle;fill:#000000;stroke:#ffffff;stroke-width:4;-inkscape-stroke:none;paint-order:stroke markers fill;stop-color:#000000" x="709.04" y="733.79" id="text29"><tspan x="709.04" y="733.79" id="tspan29">120°</tspan></text>
    <path style="fill:none;stroke:#008000;stroke-width:3;stroke-dasharray:none;stroke-opacity:1;paint-order:stroke fill markers" d="m 959.97,817.9 c 10.35,11.31 20.69,18.56 31.03,21.08 10.3,2.53 20.7,0.3 31,-6.45 10.4,-6.74 20.7,-18.03 31.1,-32.8 10.3,-14.76 20.7,-33.02 31,-53.08 10.4,-20.06 20.7,-41.91 31,-63.55 10.4,-21.65 20.7,-43.06 31.1,-62.28 10.3,-19.23 20.7,-36.24 31,-49.49 10.3,-13.26 20.7,-22.72 31,-27.56 10.4,-4.83 20.7,-5 31.1,-0.52 10.3,4.48 20.7,13.63 31,26.6 10.4,12.97 20.7,29.76 31,48.81 10.4,19.06 20.7,40.38 31.1,62 10.3,21.63 20.7,43.53 31,63.73 10.3,20.19 20.7,38.64 31,53.67 10.4,15.03 20.7,26.6 31.1,33.69 10.3,7.09 20.7,9.66 31,7.5 10.4,-2.16 20.7,-9.08 31,-20.1 10.4,-11.01 20.7,-26.14 31.1,-43.97 10.3,-17.83 20.7,-38.36 31,-59.71 10.4,-21.35 20.7,-43.5 31.1,-64.42 10.3,-20.93 20.6,-40.6 31,-57.23 10.3,-16.62 20.7,-30.18 31,-39.44 10.4,-9.26 20.7,-14.19 31,-14.38 10.4,-0.18 20.7,4.42 31.1,13.36 10.3,8.93 20.7,22.21 31,38.61 10.4,16.39 20.7,35.9 31,56.73 10.4,20.82 20.7,42.95 31.1,64.36 10.3,21.41 20.7,42.07 31,60.11 10.4,18.03 20.7,33.4 31.1,44.73" title="t sin(4*pi*t - 5.35/2*pi)" id="path29" />
    <path style="fill:none;stroke:#000080;stroke-width:3;stroke-dasharray:none;stroke-opacity:1;paint-order:stroke fill markers" d="m 959.97,559.71 c 10.35,10.73 20.69,25.6 31.03,43.24 10.3,17.65 20.7,38.05 31,59.34 10.4,21.29 20.7,43.46 31.1,64.46 10.3,21.01 20.7,40.83 31,57.67 10.4,16.84 20.7,30.66 31,40.21 10.4,9.56 20.7,14.82 31.1,15.33 10.3,0.51 20.7,-3.76 31,-12.39 10.3,-8.64 20.7,-21.65 31,-37.83 10.4,-16.17 20.7,-35.52 31.1,-56.26 10.3,-20.73 20.7,-42.84 31,-64.29 10.4,-21.46 20.7,-42.24 31,-60.45 10.4,-18.22 20.7,-33.83 31.1,-45.43 10.3,-11.61 20.7,-19.16 31,-22.01 10.3,-2.85 20.7,-0.96 31,5.47 10.4,6.44 20.7,17.43 31.1,31.96 10.3,14.52 20.7,32.59 31,52.52 10.4,19.93 20.7,41.72 31,63.38 10.4,21.66 20.7,43.15 31.1,62.53 10.3,19.37 20.7,36.59 31,50.11 10.4,13.51 20.7,23.28 31.1,28.43 10.3,5.16 20.6,5.66 31,1.5 10.3,-4.16 20.7,-13 31,-25.7 10.4,-12.71 20.7,-29.27 31,-48.17 10.4,-18.9 20.7,-40.12 31.1,-61.72 10.3,-21.6 20.7,-43.56 31,-63.87 10.4,-20.31 20.7,-38.94 31,-54.21 10.4,-15.26 20.7,-27.13 31.1,-34.52 10.3,-7.4 20.7,-10.3 31,-8.47 10.4,1.84 20.7,8.44 31.1,19.17" title="t sin(4*pi*t - 2.67/2*pi)" id="path30" />
    <path style="fill:#4d4d4d;fill-opacity:0;stroke:#4d4d4d;stroke-width:1.99998;stroke-dasharray:5.99993, 5.99993;stroke-dashoffset:0;stroke-opacity:1;paint-order:stroke fill markers" d="m 834.97,690 h 75" id="path33" />
    <path style="fill:#4d4d4d;fill-opacity:0;stroke:#4d4d4d;stroke-width:2.00004;stroke-dasharray:6.00011, 6.00011;stroke-dashoffset:0;stroke-opacity:1;paint-order:stroke fill markers" d="M 685.02,540 H 885" id="path34" />
    <path style="fill:#4d4d4d;fill-opacity:0;stroke:#4d4d4d;stroke-width:2.00004;stroke-dasharray:6.00011, 6.00011;stroke-dashoffset:0;stroke-opacity:1;paint-order:stroke fill markers" d="M 685,840 H 884.98" id="path35" />
    <text xml:space="preserve" style="font-style:italic;font-size:21.3333px;line-height:normal;font-family:'Times New Roman';-inkscape-font-specification:'Times New Roman, Italic';text-decoration-color:#000000;fill:#000000;stroke:#ffffff;stroke-width:11;stroke-dasharray:none;paint-order:stroke markers fill;stop-color:#000000" x="1096.4" y="564.04" id="text8"><tspan id="tspan8" x="1096.4" y="564.04" style="font-style:italic;font-variant:normal;font-weight:normal;font-stretch:normal;font-size:29.3333px;font-family:'Times New Roman';-inkscape-font-specification:'Times New Roman, Italic';font-variant-ligatures:normal;font-variant-caps:normal;font-variant-numeric:normal;font-variant-east-asian:normal;stroke-width:11;stroke-dasharray:none">I<tspan style="font-size:65%;baseline-shift:sub;stroke-width:11;stroke-dasharray:none" id="tspan9">A</tspan></tspan></text>
    <text xml:space="preserve" style="font-style:italic;font-size:21.3333px;line-height:normal;font-family:'Times New Roman';-inkscape-font-specification:'Times New Roman, Italic';text-decoration-color:#000000;fill:#000000;stroke:#ffffff;stroke-width:8;stroke-dasharray:none;paint-order:stroke markers fill;stop-color:#000000" x="1255.7" y="569.28" id="text8-2"><tspan id="tspan8-1" x="1255.7" y="569.28" style="font-style:italic;font-variant:normal;font-weight:normal;font-stretch:normal;font-size:29.3333px;font-family:'Times New Roman';-inkscape-font-specification:'Times New Roman, Italic';font-variant-ligatures:normal;font-variant-caps:normal;font-variant-numeric:normal;font-variant-east-asian:normal;stroke-width:8;stroke-dasharray:none">I<tspan style="font-size:65%;baseline-shift:sub;stroke-width:8;stroke-dasharray:none" id="tspan10">B</tspan></tspan></text>
    <text xml:space="preserve" style="font-style:italic;font-size:21.3333px;line-height:normal;font-family:'Times New Roman';-inkscape-font-specification:'Times New Roman, Italic';text-decoration-color:#000000;fill:#000000;stroke:#ffffff;stroke-width:8;stroke-dasharray:none;paint-order:stroke markers fill;stop-color:#000000" x="1404.2" y="570.1" id="text8-2-1"><tspan id="tspan8-1-8" x="1404.2" y="570.1" style="font-style:italic;font-variant:normal;font-weight:normal;font-stretch:normal;font-size:29.3333px;font-family:'Times New Roman';-inkscape-font-specification:'Times New Roman, Italic';font-variant-ligatures:normal;font-variant-caps:normal;font-variant-numeric:normal;font-variant-east-asian:normal;stroke-width:8;stroke-dasharray:none">I<tspan style="font-size:65%;baseline-shift:sub;stroke-width:8;stroke-dasharray:none" id="tspan9-6-9">C</tspan></tspan></text>
  </g>
</svg>
