<?xml version="1.0" encoding="UTF-8" standalone="no"?>
<!-- Created with Inkscape (http://www.inkscape.org/) -->

<svg width="1920" height="1080" viewBox="960 540 1920 1080" version="1.1" id="svg1" inkscape:version="1.4.3 (0d15f75, 2025-12-25)" sodipodi:docname="fig-002.inkscape.svg" inkscape:export-filename="fig-002.svg" inkscape:export-xdpi="96" inkscape:export-ydpi="96" xmlns:inkscape="http://www.inkscape.org/namespaces/inkscape" xmlns:sodipodi="http://sodipodi.sourceforge.net/DTD/sodipodi-0.dtd" xmlns="http://www.w3.org/2000/svg" xmlns:svg="http://www.w3.org/2000/svg">
  <sodipodi:namedview id="namedview1" pagecolor="#ffffff" bordercolor="#ffffff" borderopacity="0.24706" inkscape:showpageshadow="2" inkscape:pageopacity="0.0" inkscape:pagecheckerboard="0" inkscape:deskcolor="#ffffff" inkscape:document-units="px" showgrid="false" showguides="false" inkscape:lockguides="false" inkscape:zoom="0.38735" inkscape:cx="207.82" inkscape:cy="135.54" inkscape:window-width="1368" inkscape:window-height="860" inkscape:window-x="-7" inkscape:window-y="22" inkscape:window-maximized="1" inkscape:current-layer="layer1">
    <inkscape:grid id="grid1" units="px" originx="0" originy="0" spacingx="5" spacingy="5" empcolor="#0099e5" empopacity="0.30196" color="#0099e5" opacity="0.14902" empspacing="5" enabled="true" visible="false" />
    <sodipodi:guide position="0,1195.2" orientation="1,0" id="guide1" inkscape:locked="false" />
    <sodipodi:guide position="-272.99,1080" orientation="0,-1" id="guide2" inkscape:locked="false" />
  </sodipodi:namedview>
  <defs id="defs1">
    <rect x="-125" y="125" width="50" height="50" id="rect16" />
    <rect x="-25" y="350" width="50" height="50" id="rect9" />
    <marker style="overflow:visible" id="marker8" refX="-1" refY="0" orient="auto-start-reverse" inkscape:stockid="Concave triangle arrow" markerWidth="0.7" markerHeight="0.7" viewBox="0 0 1 1" inkscape:isstock="true" inkscape:collect="always" preserveAspectRatio="xMidYMid">
      <path transform="scale(0.7)" d="M -2,-4 9,0 -2,4 c 2,-2.33 2,-5.66 0,-8 z" style="fill:context-stroke;fill-rule:evenodd;stroke:none" id="path8" />
    </marker>
    <rect x="-25" y="350" width="70.992" height="30" id="rect10" />
    <rect x="-25" y="350" width="74" height="30" id="rect11" />
    <rect x="-25" y="350" width="50" height="50" id="rect13" />
    <rect x="-25" y="350" width="50" height="50" id="rect14" />
    <rect x="-25" y="350" width="50" height="50" id="rect15" />
  </defs>
  <g inkscape:label="Layer 1" inkscape:groupmode="layer" id="layer1">
    <path style="fill:#4d4d4d;fill-opacity:0;stroke:#4d4d4d;stroke-width:2.00003;stroke-dasharray:6.00009, 6.00009;stroke-dashoffset:0;stroke-opacity:1;paint-order:stroke fill markers" d="M 610.02,561 H 960.03" id="path31" />
    <path style="fill:#4d4d4d;fill-opacity:0;stroke:#4d4d4d;stroke-width:2.00003;stroke-dasharray:6.00009, 6.00009;stroke-dashoffset:0;stroke-opacity:1;paint-order:stroke fill markers" d="M 610.02,819.16 H 960.03" id="path32" />
    <rect style="fill:none;stroke:none;stroke-width:0.999988;stroke-dasharray:none;stroke-opacity:1;paint-order:stroke fill markers" id="rect2" width="899.98" height="300" x="959.97" y="540" />
    <path style="fill:none;stroke:#d40000;stroke-width:3;stroke-dasharray:none;stroke-opacity:1;paint-order:stroke fill markers" d="M 960 690 C 970.345 668.334 980.69 646.682 991.034 627.017 C 1001.38 607.351 1011.72 589.706 1022.07 575.676 C 1032.41 561.646 1042.76 551.268 1053.1 545.468 C 1063.45 539.667 1073.79 538.475 1084.14 541.976 C 1094.48 545.477 1104.83 553.692 1115.17 565.847 C 1125.52 578.002 1135.86 594.105 1146.21 612.667 C 1156.55 631.229 1166.9 652.244 1177.24 673.782 C 1187.59 695.321 1197.93 717.362 1208.28 737.895 C 1218.62 758.429 1228.97 777.422 1239.31 793.155 C 1249.66 808.888 1260 821.323 1270.34 829.347 C 1280.69 837.37 1291.03 840.948 1301.38 839.78 C 1311.72 838.612 1322.07 832.671 1332.41 822.527 C 1342.76 812.382 1353.1 798.022 1363.45 780.776 C 1373.79 763.531 1384.14 743.404 1394.48 722.246 C 1404.83 701.087 1415.17 678.915 1425.52 657.754 C 1435.86 636.594 1446.21 616.475 1456.55 599.224 C 1466.9 581.973 1477.24 567.626 1487.59 557.473 C 1497.93 547.32 1508.28 541.398 1518.62 540.22 C 1528.97 539.042 1539.31 542.638 1549.66 550.653 C 1560 558.669 1570.34 571.119 1580.69 586.845 C 1591.03 602.571 1601.38 621.574 1611.72 642.105 C 1622.07 662.635 1632.41 684.678 1642.76 706.218 C 1653.1 727.758 1663.45 748.766 1673.79 767.333 C 1684.14 785.9 1694.48 801.991 1704.83 814.153 C 1715.17 826.316 1725.52 834.514 1735.86 838.024 C 1746.21 841.534 1756.55 840.324 1766.9 834.532 C 1777.24 828.741 1787.59 818.347 1797.93 804.324 C 1808.28 790.302 1818.62 772.645 1828.97 752.983 C 1839.31 733.322 1849.66 711.666 1860 690" title="t sin(4*pi*t)" id="path2" />
    <path style="fill:none;stroke:#000080;stroke-width:2;stroke-dasharray:none;stroke-opacity:1;paint-order:stroke fill markers" d="m 935,690 h 950" id="path5" />
    <path style="fill:none;stroke:#333333;stroke-width:2;stroke-dasharray:none;stroke-opacity:1;paint-order:stroke fill markers;marker-end:url(#marker8)" d="M 960,890 V 515" id="path6" />
    <path style="fill:none;stroke:#333333;stroke-width:2;stroke-dasharray:none;stroke-opacity:1;marker-end:url(#marker8);paint-order:stroke fill markers" d="m 935,865 h 950" id="path9" sodipodi:nodetypes="cc" />
    <text xml:space="preserve" transform="translate(960,566)" id="text9" style="font-style:normal;font-variant:normal;font-weight:normal;font-stretch:normal;font-size:29.3333px;line-height:0;font-family:'Times New Roman';-inkscape-font-specification:'Times New Roman, Normal';font-variant-ligatures:normal;font-variant-caps:normal;font-variant-numeric:normal;font-variant-east-asian:normal;text-align:center;text-decoration-color:#000000;white-space:pre;shape-inside:url(#rect9);display:inline;fill:#000000;stroke:#ffffff;stroke-width:4;-inkscape-stroke:none;paint-order:stroke markers fill;stop-color:#000000" x="25" y="0"><tspan x="-7.3333" y="357.7" id="tspan12">0</tspan></text>
    <text xml:space="preserve" transform="translate(1100,566)" id="text10" style="font-style:normal;font-variant:normal;font-weight:normal;font-stretch:normal;font-size:29.3333px;line-height:0;font-family:'Times New Roman';-inkscape-font-specification:'Times New Roman, Normal';font-variant-ligatures:normal;font-variant-caps:normal;font-variant-numeric:normal;font-variant-east-asian:normal;text-align:center;text-decoration-color:#000000;white-space:pre;shape-inside:url(#rect10);shape-padding:1.82543;display:inline;fill:#000000;stroke:#ffffff;stroke-width:4;-inkscape-stroke:none;paint-order:stroke markers fill;stop-color:#000000" x="25" y="0"><tspan x="-15.65" y="359.53" id="tspan13">2π/3</tspan></text>
    <path style="fill:none;stroke:#333333;stroke-width:2;stroke-dasharray:none;stroke-opacity:1;paint-order:stroke fill markers" d="m 1110,865 c 0,25 0,25 0,25" id="path10" />
    <text xml:space="preserve" transform="translate(1249.1,566)" id="text11" style="font-style:normal;font-variant:normal;font-weight:normal;font-stretch:normal;font-size:29.3333px;line-height:0;font-family:'Times New Roman';-inkscape-font-specification:'Times New Roman, Normal';font-variant-ligatures:normal;font-variant-caps:normal;font-variant-numeric:normal;font-variant-east-asian:normal;text-align:center;text-decoration-color:#000000;white-space:pre;shape-inside:url(#rect11);shape-padding:1;display:inline;fill:#000000;stroke:#ffffff;stroke-width:4;-inkscape-stroke:none;paint-order:stroke markers fill;stop-color:#000000" x="25" y="0"><tspan x="-14.146" y="358.7" id="tspan14">4π/3</tspan></text>
    <path style="fill:none;stroke:#333333;stroke-width:2;stroke-dasharray:none;stroke-opacity:1;paint-order:stroke fill markers" d="m 1260,865 c 0,25 0,25 0,25" id="path11" />
    <text xml:space="preserve" style="font-size:24px;line-height:normal;font-family:'Times New Roman';-inkscape-font-specification:'Times New Roman, Normal';text-decoration-color:#000000;fill:#000000;stroke:#ffffff;stroke-width:4;-inkscape-stroke:none;paint-order:stroke markers fill;stop-color:#000000" x="1270" y="895" id="text12"><tspan sodipodi:role="line" id="tspan11" x="1270" y="895" /></text>
    <text xml:space="preserve" transform="translate(1410,566)" id="text13" style="font-style:normal;font-variant:normal;font-weight:normal;font-stretch:normal;font-size:29.3333px;line-height:0;font-family:'Times New Roman';-inkscape-font-specification:'Times New Roman, Normal';font-variant-ligatures:normal;font-variant-caps:normal;font-variant-numeric:normal;font-variant-east-asian:normal;text-align:center;text-decoration-color:#000000;white-space:pre;shape-inside:url(#rect13);display:inline;fill:#000000;stroke:#ffffff;stroke-width:4;-inkscape-stroke:none;paint-order:stroke markers fill;stop-color:#000000" x="25" y="0"><tspan x="-14.738" y="357.7" id="tspan15">2π</tspan></text>
    <path style="fill:none;stroke:#333333;stroke-width:2;stroke-dasharray:none;stroke-opacity:1;paint-order:stroke fill markers" d="m 1410,865 c 0,25 0,25 0,25" id="path13" />
    <text xml:space="preserve" transform="translate(1860,566)" id="text14" style="font-style:normal;font-variant:normal;font-weight:normal;font-stretch:normal;font-size:29.3333px;line-height:0;font-family:'Times New Roman';-inkscape-font-specification:'Times New Roman, Normal';font-variant-ligatures:normal;font-variant-caps:normal;font-variant-numeric:normal;font-variant-east-asian:normal;text-align:center;text-decoration-color:#000000;white-space:pre;shape-inside:url(#rect14);display:inline;fill:#000000;stroke:#ffffff;stroke-width:4;-inkscape-stroke:none;paint-order:stroke markers fill;stop-color:#000000" x="25" y="0"><tspan x="-14.738" y="357.7" id="tspan16">4π</tspan></text>
    <path style="fill:none;stroke:#333333;stroke-width:2;stroke-dasharray:none;stroke-opacity:1;paint-order:stroke fill markers" d="m 1860,865 c 0,25 0,25 0,25" id="path14" />
    <text xml:space="preserve" transform="translate(1635.1,566)" id="text15" style="font-style:normal;font-variant:normal;font-weight:normal;font-stretch:normal;font-size:29.3333px;line-height:0;font-family:'Times New Roman';-inkscape-font-specification:'Times New Roman, Normal';font-variant-ligatures:normal;font-variant-caps:normal;font-variant-numeric:normal;font-variant-east-asian:normal;text-align:center;text-decoration-color:#000000;white-space:pre;shape-inside:url(#rect15);display:inline;fill:#000000;stroke:#ffffff;stroke-width:4;-inkscape-stroke:none;paint-order:stroke markers fill;stop-color:#000000" x="25" y="0"><tspan x="-14.738" y="357.7" id="tspan19">3π</tspan></text>
    <path style="fill:none;stroke:#333333;stroke-width:2;stroke-dasharray:none;stroke-opacity:1;paint-order:stroke fill markers" d="m 1635,865 c 0,25 0,25 0,25" id="path15" />
    <text xml:space="preserve" transform="translate(1020,550)" id="text16" style="font-style:normal;font-variant:normal;font-weight:normal;font-stretch:normal;font-size:29.3333px;line-height:normal;font-family:'Times New Roman';-inkscape-font-specification:'Times New Roman, Normal';font-variant-ligatures:normal;font-variant-caps:normal;font-variant-numeric:normal;font-variant-east-asian:normal;text-align:center;text-decoration-color:#000000;white-space:pre;shape-inside:url(#rect16);display:inline;fill:#000000;stroke:#ffffff;stroke-width:4;-inkscape-stroke:none;paint-order:stroke markers fill;stop-color:#000000" x="25" y="0"><tspan x="-107.33" y="151.04" id="tspan22">0</tspan></text>
    <text xml:space="preserve" style="font-style:normal;font-variant:normal;font-weight:normal;font-stretch:normal;font-size:29.3333px;line-height:normal;font-family:'Times New Roman';-inkscape-font-specification:'Times New Roman, Normal';font-variant-ligatures:normal;font-variant-caps:normal;font-variant-numeric:normal;font-variant-east-asian:normal;text-decoration-color:#000000;fill:#000000;stroke:#ffffff;stroke-width:4;-inkscape-stroke:none;paint-order:stroke markers fill;stop-color:#000000" x="892" y="547.8" id="text17"><tspan sodipodi:role="line" id="tspan17" x="892" y="547.8">+<tspan style="font-style:italic;font-variant:normal;font-weight:normal;font-stretch:normal;font-size:29.3333px;font-family:'Times New Roman';-inkscape-font-specification:'Times New Roman, Italic';font-variant-ligatures:normal;font-variant-caps:normal;font-variant-numeric:normal;font-variant-east-asian:normal" id="tspan32">I</tspan><tspan style="font-style:italic;font-variant:normal;font-weight:normal;font-stretch:normal;font-size:65%;font-family:'Times New Roman';-inkscape-font-specification:'Times New Roman, Italic';font-variant-ligatures:normal;font-variant-caps:normal;font-variant-numeric:normal;font-variant-east-asian:normal;baseline-shift:sub" id="tspan18">p</tspan></tspan></text>
    <text xml:space="preserve" style="font-style:normal;font-variant:normal;font-weight:normal;font-stretch:normal;font-size:29.3333px;line-height:normal;font-family:'Times New Roman';-inkscape-font-specification:'Times New Roman, Normal';font-variant-ligatures:normal;font-variant-caps:normal;font-variant-numeric:normal;font-variant-east-asian:normal;text-decoration-color:#000000;fill:#000000;stroke:#ffffff;stroke-width:4;-inkscape-stroke:none;paint-order:stroke markers fill;stop-color:#000000" x="892" y="847.8" id="text20"><tspan sodipodi:role="line" id="tspan20" x="892" y="847.8">−<tspan style="font-style:italic;font-variant:normal;font-weight:normal;font-stretch:normal;font-size:29.3333px;font-family:'Times New Roman';-inkscape-font-specification:'Times New Roman, Italic';font-variant-ligatures:normal;font-variant-caps:normal;font-variant-numeric:normal;font-variant-east-asian:normal" id="tspan33">I</tspan><tspan style="font-style:italic;font-variant:normal;font-weight:normal;font-stretch:normal;font-size:65%;font-family:'Times New Roman';-inkscape-font-specification:'Times New Roman, Italic';font-variant-ligatures:normal;font-variant-caps:normal;font-variant-numeric:normal;font-variant-east-asian:normal;baseline-shift:sub" id="tspan21">p</tspan></tspan></text>
    <path style="fill:none;stroke:#333333;stroke-width:2;stroke-dasharray:none;stroke-opacity:1;paint-order:stroke fill markers" d="M 960,841 H 935" id="path20" sodipodi:nodetypes="cc" />
    <path style="fill:none;stroke:#333333;stroke-width:2;stroke-dasharray:none;stroke-opacity:1;paint-order:stroke fill markers" d="m 959.5,540 h -25" id="path21" sodipodi:nodetypes="cc" />
    <path style="fill:none;stroke:#d40000;stroke-width:3;stroke-dasharray:none;stroke-opacity:1;marker-end:url(#marker8);paint-order:stroke fill markers" d="M 685,690 H 820" id="path22" inkscape:transform-center-x="-67.5" sodipodi:nodetypes="cc" />
    <circle style="font-variation-settings:normal;opacity:1;vector-effect:none;fill:none;fill-opacity:1;fill-rule:evenodd;stroke:#000000;stroke-width:1;stroke-linecap:butt;stroke-linejoin:miter;stroke-miterlimit:4;stroke-dasharray:none;stroke-dashoffset:0;stroke-opacity:1;-inkscape-stroke:none;stop-color:#000000;stop-opacity:1" id="path23" cx="685" cy="690" r="150" />
    <path style="fill:none;fill-opacity:0;stroke:#008000;stroke-width:3;stroke-dasharray:none;stroke-opacity:1;marker-end:url(#marker8);paint-order:stroke fill markers" d="M 685,690 617.5,806.91" id="path25" inkscape:transform-center-x="33.75" sodipodi:nodetypes="cc" inkscape:transform-center-y="58.455" />
    <path style="fill:none;fill-opacity:1;stroke:#000080;stroke-width:3;stroke-dasharray:none;stroke-opacity:1;marker-end:url(#marker8);paint-order:stroke fill markers" d="M 685,690 617.5,573.09" id="path26" inkscape:transform-center-x="33.75" sodipodi:nodetypes="cc" inkscape:transform-center-y="-58.455" />
    <text xml:space="preserve" style="font-size:29.3333px;line-height:normal;font-family:'Times New Roman';-inkscape-font-specification:'Times New Roman, Normal';text-align:center;text-decoration-color:#000000;text-anchor:middle;fill:#000000;stroke:#ffffff;stroke-width:4;-inkscape-stroke:none;paint-order:stroke markers fill;stop-color:#000000" x="709.04" y="661.95" id="text26"><tspan sodipodi:role="line" x="709.04" y="661.95" id="tspan27">120°</tspan></text>
    <text xml:space="preserve" style="font-size:29.3333px;line-height:normal;font-family:'Times New Roman';-inkscape-font-specification:'Times New Roman, Normal';text-align:center;text-decoration-color:#000000;text-anchor:middle;fill:#000000;stroke:#ffffff;stroke-width:4;-inkscape-stroke:none;paint-order:stroke markers fill;stop-color:#000000" x="634.04" y="699.75" id="text28"><tspan sodipodi:role="line" x="634.04" y="699.75" id="tspan28">120°</tspan></text>
    <text xml:space="preserve" style="font-size:29.3333px;line-height:normal;font-family:'Times New Roman';-inkscape-font-specification:'Times New Roman, Normal';text-align:center;text-decoration-color:#000000;text-anchor:middle;fill:#000000;stroke:#ffffff;stroke-width:4;-inkscape-stroke:none;paint-order:stroke markers fill;stop-color:#000000" x="709.04" y="733.79" id="text29"><tspan sodipodi:role="line" x="709.04" y="733.79" id="tspan29">120°</tspan></text>
    <path style="fill:none;stroke:#008000;stroke-width:3;stroke-dasharray:none;stroke-opacity:1;paint-order:stroke fill markers" d="M 959.97 817.896 C 970.315 829.213 980.659 836.462 991.004 838.984 C 1001.35 841.506 1011.69 839.279 1022.04 832.532 C 1032.38 825.786 1042.73 814.502 1053.07 799.734 C 1063.42 784.966 1073.76 766.711 1084.11 746.651 C 1094.45 726.591 1104.79 704.74 1115.14 683.096 C 1125.48 661.453 1135.83 640.044 1146.17 620.818 C 1156.52 601.591 1166.86 584.583 1177.21 571.328 C 1187.55 558.072 1197.9 548.608 1208.24 543.774 C 1218.58 538.94 1228.93 538.769 1239.27 543.25 C 1249.62 547.731 1259.96 556.885 1270.31 569.852 C 1280.65 582.82 1291 599.607 1301.34 618.664 C 1311.69 637.721 1322.03 659.039 1332.38 680.663 C 1342.72 702.286 1353.06 724.193 1363.41 744.387 C 1373.75 764.58 1384.1 783.027 1394.44 798.058 C 1404.79 813.088 1415.13 824.665 1425.48 831.754 C 1435.82 838.843 1446.17 841.41 1456.51 839.248 C 1466.86 837.085 1477.2 830.167 1487.54 819.153 C 1497.89 808.138 1508.23 793.015 1518.58 775.184 C 1528.92 757.353 1539.27 736.82 1549.61 715.469 C 1559.96 694.118 1570.3 671.97 1580.65 651.046 C 1590.99 630.122 1601.34 610.454 1611.68 593.824 C 1622.02 577.195 1632.37 563.641 1642.71 554.38 C 1653.06 545.119 1663.4 540.186 1673.75 540.005 C 1684.09 539.824 1694.44 544.423 1704.78 553.356 C 1715.13 562.29 1725.47 575.571 1735.81 591.966 C 1746.16 608.362 1756.5 627.87 1766.85 648.698 C 1777.19 669.525 1787.54 691.655 1797.88 713.064 C 1808.23 734.473 1818.57 755.133 1828.92 773.167 C 1839.26 791.2 1849.61 806.571 1859.95 817.896" title="t sin(4*pi*t - 5.35/2*pi)" id="path29" />
    <path style="fill:none;stroke:#000080;stroke-width:3;stroke-dasharray:none;stroke-opacity:1;paint-order:stroke fill markers" d="M 959.97 559.705 C 970.315 570.444 980.659 585.311 991.004 602.953 C 1001.35 620.595 1011.69 641 1022.04 662.292 C 1032.38 683.584 1042.73 705.745 1053.07 726.752 C 1063.42 747.759 1073.76 767.581 1084.11 784.419 C 1094.45 801.257 1104.79 815.075 1115.14 824.633 C 1125.48 834.19 1135.83 839.45 1146.17 839.959 C 1156.52 840.469 1166.86 836.199 1177.21 827.566 C 1187.55 818.934 1197.9 805.923 1208.24 789.744 C 1218.58 773.565 1228.93 754.219 1239.27 733.484 C 1249.62 712.75 1259.96 690.644 1270.31 669.187 C 1280.65 647.729 1291 626.95 1301.34 608.736 C 1311.69 590.522 1322.03 574.911 1332.38 563.307 C 1342.72 551.704 1353.06 544.146 1363.41 541.297 C 1373.75 538.449 1384.1 540.342 1394.44 546.775 C 1404.79 553.209 1415.13 564.202 1425.48 578.728 C 1435.82 593.254 1446.17 611.316 1456.51 631.249 C 1466.86 651.182 1477.2 672.974 1487.54 694.63 C 1497.89 716.286 1508.23 737.78 1518.58 757.156 C 1528.92 776.531 1539.27 793.754 1549.61 807.267 C 1559.96 820.781 1570.3 830.549 1580.65 835.702 C 1590.99 840.856 1601.34 841.363 1611.68 837.204 C 1622.02 833.045 1632.37 824.198 1642.71 811.496 C 1653.06 798.793 1663.4 782.227 1673.75 763.329 C 1684.09 744.43 1694.44 723.208 1704.78 701.607 C 1715.13 680.006 1725.47 658.05 1735.81 637.74 C 1746.16 617.429 1756.5 598.798 1766.85 583.533 C 1777.19 568.267 1787.54 556.405 1797.88 549.006 C 1808.23 541.607 1818.57 538.706 1828.92 540.542 C 1839.26 542.378 1849.61 548.975 1859.95 559.705" title="t sin(4*pi*t - 2.67/2*pi)" id="path30" />
    <path style="fill:#4d4d4d;fill-opacity:0;stroke:#4d4d4d;stroke-width:1.99998;stroke-dasharray:5.99993, 5.99993;stroke-dashoffset:0;stroke-opacity:1;paint-order:stroke fill markers" d="m 834.97,690 h 75" id="path33" />
    <path style="fill:#4d4d4d;fill-opacity:0;stroke:#4d4d4d;stroke-width:2.00004;stroke-dasharray:6.00011, 6.00011;stroke-dashoffset:0;stroke-opacity:1;paint-order:stroke fill markers" d="M 685.02,540 H 885" id="path34" />
    <path style="fill:#4d4d4d;fill-opacity:0;stroke:#4d4d4d;stroke-width:2.00004;stroke-dasharray:6.00011, 6.00011;stroke-dashoffset:0;stroke-opacity:1;paint-order:stroke fill markers" d="M 685,840 H 884.98" id="path35" inkscape:export-filename="fig-002.svg" inkscape:export-xdpi="96" inkscape:export-ydpi="96" />
    <text xml:space="preserve" style="font-style:italic;font-size:21.3333px;line-height:normal;font-family:'Times New Roman';-inkscape-font-specification:'Times New Roman, Italic';text-decoration-color:#000000;fill:#000000;stroke:#ffffff;stroke-width:11;paint-order:stroke markers fill;stop-color:#000000;stroke-dasharray:none" x="1096.4" y="564.04" id="text8"><tspan sodipodi:role="line" id="tspan8" x="1096.4" y="564.04" style="font-style:italic;font-variant:normal;font-weight:normal;font-stretch:normal;font-size:29.3333px;font-family:'Times New Roman';-inkscape-font-specification:'Times New Roman, Italic';font-variant-ligatures:normal;font-variant-caps:normal;font-variant-numeric:normal;font-variant-east-asian:normal;stroke-width:11;stroke-dasharray:none">I<tspan style="font-size:65%;baseline-shift:sub;stroke-width:11;stroke-dasharray:none" id="tspan9">A</tspan></tspan></text>
    <text xml:space="preserve" style="font-style:italic;font-size:21.3333px;line-height:normal;font-family:'Times New Roman';-inkscape-font-specification:'Times New Roman, Italic';text-decoration-color:#000000;fill:#000000;stroke:#ffffff;stroke-width:8;stroke-dasharray:none;paint-order:stroke markers fill;stop-color:#000000" x="1255.7" y="569.28" id="text8-2"><tspan sodipodi:role="line" id="tspan8-1" x="1255.7" y="569.28" style="font-style:italic;font-variant:normal;font-weight:normal;font-stretch:normal;font-size:29.3333px;font-family:'Times New Roman';-inkscape-font-specification:'Times New Roman, Italic';font-variant-ligatures:normal;font-variant-caps:normal;font-variant-numeric:normal;font-variant-east-asian:normal;stroke-width:8;stroke-dasharray:none">I<tspan style="font-size:65%;baseline-shift:sub;stroke-width:8;stroke-dasharray:none" id="tspan10">B</tspan></tspan></text>
    <text xml:space="preserve" style="font-style:italic;font-size:21.3333px;line-height:normal;font-family:'Times New Roman';-inkscape-font-specification:'Times New Roman, Italic';text-decoration-color:#000000;fill:#000000;stroke:#ffffff;stroke-width:8;stroke-dasharray:none;paint-order:stroke markers fill;stop-color:#000000" x="1404.2" y="570.1" id="text8-2-1" inkscape:export-filename="fig-002.svg" inkscape:export-xdpi="96" inkscape:export-ydpi="96"><tspan sodipodi:role="line" id="tspan8-1-8" x="1404.2" y="570.1" style="font-style:italic;font-variant:normal;font-weight:normal;font-stretch:normal;font-size:29.3333px;font-family:'Times New Roman';-inkscape-font-specification:'Times New Roman, Italic';font-variant-ligatures:normal;font-variant-caps:normal;font-variant-numeric:normal;font-variant-east-asian:normal;stroke-width:8;stroke-dasharray:none">I<tspan style="font-size:65%;baseline-shift:sub;stroke-width:8;stroke-dasharray:none" id="tspan9-6-9">C</tspan></tspan></text>
  </g>
</svg>
